<svg width="19" height="19" viewBox="0 0 19 19" fill="none" xmlns="http://www.w3.org/2000/svg">
<path id="Vector" d="M9.5 0C12.0196 0 14.4359 1.00089 16.2175 2.78249C17.9991 4.56408 19 6.98044 19 9.5C19 12.0196 17.9991 14.4359 16.2175 16.2175C14.4359 17.9991 12.0196 19 9.5 19C6.98044 19 4.56408 17.9991 2.78249 16.2175C1.00089 14.4359 0 12.0196 0 9.5C0 6.98044 1.00089 4.56408 2.78249 2.78249C4.56408 1.00089 6.98044 0 9.5 0ZM8.31657 11.3742L6.20621 9.2625C6.13056 9.18684 6.04074 9.12683 5.94189 9.08589C5.84305 9.04494 5.7371 9.02387 5.63011 9.02387C5.52311 9.02387 5.41717 9.04494 5.31832 9.08589C5.21947 9.12683 5.12966 9.18684 5.054 9.2625C4.90121 9.41529 4.81537 9.62253 4.81537 9.83861C4.81537 10.0547 4.90121 10.2619 5.054 10.4147L7.74114 13.1019C7.81658 13.1779 7.90633 13.2382 8.00521 13.2794C8.10409 13.3206 8.21014 13.3418 8.31725 13.3418C8.42436 13.3418 8.53041 13.3206 8.62929 13.2794C8.72817 13.2382 8.81791 13.1779 8.89336 13.1019L14.4576 7.53621C14.5343 7.46087 14.5953 7.3711 14.6371 7.27207C14.6789 7.17304 14.7007 7.06671 14.7012 6.95922C14.7017 6.85173 14.6809 6.74521 14.64 6.64579C14.5991 6.54638 14.539 6.45604 14.463 6.37999C14.3871 6.30393 14.2968 6.24367 14.1974 6.20268C14.0981 6.16169 13.9916 6.14078 13.8841 6.14115C13.7766 6.14153 13.6702 6.16318 13.5711 6.20486C13.4721 6.24654 13.3822 6.30742 13.3068 6.384L8.31657 11.3742Z" fill="white"/>
</svg>
