<svg width="10" height="13" viewBox="0 0 10 13" fill="none" xmlns="http://www.w3.org/2000/svg">
<g id="Iconography / Document / Document 1 Copy 3">
<path id="Shape" fill-rule="evenodd" clip-rule="evenodd" d="M6.0037 0C6.13016 0 6.25199 0.0476329 6.34492 0.133413L9.11992 2.97957C9.20377 3.07512 9.25 3.1979 9.25 3.32502V10.3333C9.25 11.4379 8.35457 12.3333 7.25 12.3333H2C0.89543 12.3333 0 11.4379 0 10.3333V2C0 0.895429 0.895431 0 2 0H6.0037ZM5.55078 2.37132C5.55078 1.58538 4.91365 0.948242 4.1277 0.948242H2.92578C1.82121 0.948242 0.925781 1.84367 0.925781 2.94824V9.38414C0.925781 10.4887 1.82121 11.3841 2.92578 11.3841H6.32578C7.43035 11.3841 8.32578 10.4887 8.32578 9.38414V5.1819C8.32578 4.4156 7.70458 3.7944 6.93828 3.7944C6.17199 3.7944 5.55078 3.17319 5.55078 2.4069V2.37132ZM6.46314 8.53809C6.72512 8.53809 6.9375 8.75046 6.9375 9.01244C6.9375 9.27443 6.72512 9.4868 6.46314 9.4868H2.78686C2.52488 9.4868 2.3125 9.27443 2.3125 9.01244C2.3125 8.75046 2.52488 8.53809 2.78686 8.53809H6.46314ZM6.46314 6.64062C6.72512 6.64062 6.9375 6.853 6.9375 7.11498C6.9375 7.37697 6.72512 7.58934 6.46314 7.58934H2.78686C2.52488 7.58934 2.3125 7.37697 2.3125 7.11498C2.3125 6.853 2.52488 6.64062 2.78686 6.64062H6.46314ZM6.46314 4.74316C6.72512 4.74316 6.9375 4.95554 6.9375 5.21752C6.9375 5.4795 6.72512 5.69188 6.46314 5.69188H2.78686C2.52488 5.69188 2.3125 5.4795 2.3125 5.21752C2.3125 4.95554 2.52488 4.74316 2.78686 4.74316H6.46314ZM7.07975 2.24951C6.85963 2.02375 6.47656 2.17959 6.47656 2.4949C6.47656 2.68903 6.63394 2.8464 6.82807 2.8464C7.13909 2.8464 7.29687 2.4722 7.07975 2.24951Z" fill="#5E6E19"/>
<mask id="mask0_1_1066" style="mask-type:luminance" maskUnits="userSpaceOnUse" x="0" y="0" width="10" height="13">
<path id="Shape_2" fill-rule="evenodd" clip-rule="evenodd" d="M6.20039 0L6.34492 0.133413L9.11992 2.97957L9.25 3.1278V12.3333H0V0H6.20039ZM5.55078 2.37132C5.55078 1.58538 4.91365 0.948242 4.1277 0.948242H2.92578C1.82121 0.948242 0.925781 1.84367 0.925781 2.94824V9.38414C0.925781 10.4887 1.82121 11.3841 2.92578 11.3841H6.32578C7.43035 11.3841 8.32578 10.4887 8.32578 9.38414V5.1819C8.32578 4.4156 7.70458 3.7944 6.93828 3.7944C6.17199 3.7944 5.55078 3.17319 5.55078 2.4069V2.37132ZM6.46314 8.53809C6.72512 8.53809 6.9375 8.75046 6.9375 9.01244C6.9375 9.27443 6.72512 9.4868 6.46314 9.4868H2.78686C2.52488 9.4868 2.3125 9.27443 2.3125 9.01244C2.3125 8.75046 2.52488 8.53809 2.78686 8.53809H6.46314ZM6.46314 6.64062C6.72512 6.64062 6.9375 6.853 6.9375 7.11498C6.9375 7.37697 6.72512 7.58934 6.46314 7.58934H2.78686C2.52488 7.58934 2.3125 7.37697 2.3125 7.11498C2.3125 6.853 2.52488 6.64062 2.78686 6.64062H6.46314ZM6.46314 4.74316C6.72512 4.74316 6.9375 4.95554 6.9375 5.21752C6.9375 5.4795 6.72512 5.69188 6.46314 5.69188H2.78686C2.52488 5.69188 2.3125 5.4795 2.3125 5.21752C2.3125 4.95554 2.52488 4.74316 2.78686 4.74316H6.46314ZM7.07975 2.24951C6.85963 2.02375 6.47656 2.17959 6.47656 2.4949C6.47656 2.68903 6.63394 2.8464 6.82807 2.8464C7.13909 2.8464 7.29687 2.4722 7.07975 2.24951Z" fill="white"/>
</mask>
<g mask="url(#mask0_1_1066)">
</g>
</g>
</svg>
