<svg width="7" height="10" viewBox="0 0 7 10" fill="none" xmlns="http://www.w3.org/2000/svg">
<path id="Vector" d="M0.616031 0.211311C0.453716 0.346654 0.362533 0.530194 0.362533 0.721569C0.362533 0.912944 0.453716 1.09648 0.616031 1.23183L4.90181 4.80436L0.616031 8.37689C0.458316 8.51301 0.371047 8.69532 0.37302 8.88455C0.374992 9.07378 0.466049 9.2548 0.626578 9.38861C0.787107 9.52243 1.00426 9.59833 1.23128 9.59997C1.45829 9.60162 1.677 9.52887 1.84029 9.3974L6.7382 5.31462C6.90052 5.17927 6.9917 4.99573 6.9917 4.80436C6.9917 4.61298 6.90052 4.42944 6.7382 4.2941L1.84029 0.211311C1.67793 0.0760086 1.45774 0 1.22816 0C0.998579 0 0.778395 0.0760086 0.616031 0.211311Z" fill="#556317"/>
</svg>
